<svg width="90" height="91" viewBox="0 0 90 91" fill="none" xmlns="http://www.w3.org/2000/svg">
<g clip-path="url(#clip0_3458_3529)">
<mask id="mask0_3458_3529" style="mask-type:luminance" maskUnits="userSpaceOnUse" x="0" y="0" width="90" height="91">
<path d="M90 45.5C90 20.6472 69.8528 0.5 45 0.5C20.1472 0.5 0 20.6472 0 45.5C0 70.3528 20.1472 90.5 45 90.5C69.8528 90.5 90 70.3528 90 45.5Z" fill="white"/>
</mask>
<g mask="url(#mask0_3458_3529)">
<path d="M45 90.5C69.8528 90.5 90 70.3528 90 45.5C90 20.6472 69.8528 0.5 45 0.5C20.1472 0.5 0 20.6472 0 45.5C0 70.3528 20.1472 90.5 45 90.5Z" fill="#4f4f4f"/>
<path d="M61.136 43.4609C60.9602 33.0547 54.8078 35.7266 44.9992 31.6484C35.1906 35.7266 29.0383 33.0547 28.8625 43.4609C28.8274 45.4297 29.0735 47.3984 30.3039 49.0156C31.9914 51.1953 35.9641 54.0078 44.9992 53.7266C54.0344 54.0078 58.0071 51.1953 59.6946 49.0156C60.925 47.3984 61.1711 45.4297 61.136 43.4609Z" fill="#8f8f8f"/>
<path d="M31.8523 43.145C31.6413 43.8833 31.5007 45.1841 31.6062 46.5903C31.6765 47.7153 32.1335 49.3676 32.5906 50.3169C33.0476 51.2661 33.5046 51.6528 33.5046 51.6528C32.8015 50.2466 32.6257 45.9223 32.4851 43.9184C32.4148 43.145 31.9577 42.688 31.8523 43.145Z" fill="#4B8F07"/>
<path d="M58.1484 43.145C58.0078 42.688 57.5859 43.145 57.5156 43.9184C57.375 45.9575 57.1992 50.2466 56.4961 51.6528C56.4961 51.6528 56.9883 51.2661 57.4102 50.3169C57.8672 49.3325 58.3242 47.7153 58.3945 46.5903C58.5 45.1841 58.3594 43.8833 58.1484 43.145Z" fill="#4B8F07"/>
<path d="M76.3594 77.5273C75.0586 71.9727 70.8398 67.543 65.3555 65.9609L50.9695 61.8301L50.2734 54.6406H39.7266L39.0234 61.9074L24.6445 66.0664C19.1602 67.6484 14.9414 72.0781 13.6406 77.6328L10.8984 96.7227H22.1484L23.3789 80.9023L23.9062 96.7227H45V96.6523H66.0938L66.6211 80.832L67.8516 96.6523H79.1016L76.3594 77.5273Z" fill="#d8d8d8"/>
<path d="M32.2446 42.3025C31.7278 34.9081 37.5873 28.625 45 28.625C52.4127 28.625 58.2722 34.9078 57.7558 42.3025L57.3279 48.4268C57.1686 50.7087 56.379 52.9015 55.0471 54.7612C53.7152 56.6209 51.8932 58.0744 49.7841 58.9599C47.9728 59.7205 46.0064 60.0383 44.0477 59.887C42.0891 59.7357 40.1948 59.1196 38.5219 58.0899C36.8489 57.0601 35.4456 55.6463 34.4283 53.9658C33.4109 52.2853 32.8089 50.3864 32.6721 48.4268L32.2446 42.3025Z" fill="#d8d8d8"/>
<path d="M33.3909 32.555C35.2542 29.9183 35.0503 27.9924 41.3081 26.6213C47.5659 25.2502 53.519 27.7527 56.1557 29.7566C56.4018 29.9675 57.576 32.5399 57.576 32.6805C57.9979 36.4774 57.8671 43.3205 57.6561 43.3557C57.2694 43.4612 54.8436 34.0745 52.8397 37.2034C51.0116 40.051 47.0038 41.6682 44.4022 42.512C43.453 42.8284 43.8397 40.0862 42.9257 40.4377C41.7304 40.9299 40.4647 42.6877 39.1288 42.969C37.7929 43.2502 40.4296 39.3127 40.0429 38.8909C39.3046 38.012 37.3358 41.6682 35.9999 41.2463C35.4725 41.0705 35.4374 39.137 34.9804 39.5588C33.6796 40.7541 32.7655 45.9573 32.3085 43.7424C31.7105 40.719 31.5277 35.1917 33.3909 32.555Z" fill="#EDEDED"/>
<path d="M35.3602 39.6868C35.1463 39.2777 34.8516 39.7069 34.498 40.2598C34.6777 39.4809 34.823 36.6064 34.823 36.6064C34.823 36.6064 35.1475 39.0205 35.3602 39.6868Z" fill="#CACACA"/>
<path d="M54.8778 37.3384C54.393 36.8463 53.8438 36.1474 53.0215 37.0006C53.7461 36.0615 55.4467 31.8242 55.4467 31.8242C55.4467 31.8242 54.3372 35.7819 54.8778 37.3384Z" fill="#CACACA"/>
<path d="M57.6919 42.4413C59.9419 40.8593 59.6255 36.2187 58.8872 33.6874C58.4654 32.246 57.7974 29.5741 57.1294 28.2382C56.3208 26.621 53.7544 24.4413 52.5591 23.1405C50.1333 20.539 47.6724 20.9608 45.0005 20.9608C42.3286 20.9608 39.8677 20.539 37.4419 23.1405C36.2466 24.4062 33.6802 26.621 32.8716 28.2382C32.2036 29.5741 31.5357 32.246 31.1138 33.6874C30.4107 36.2538 30.1997 41.5624 32.063 43.2148C32.063 43.2148 34.4536 36.289 45.0005 36.289C55.5474 36.289 57.6919 42.4413 57.6919 42.4413Z" fill="#8f8f8f"/>
<path d="M58.957 36.3945C55.6172 31.9648 50.8008 29.5039 45 29.5039C39.1992 29.5039 34.3828 31.9648 31.043 36.3945C34.875 32 39.2344 29.9258 45 29.8555C50.8008 29.9258 55.1602 32 58.957 36.3945Z" fill="#4B8F07"/>
<path d="M52.4883 37.4141C49.957 36.1484 47.5664 35.7266 45.0352 35.6562C42.4688 35.6914 40.1133 36.1484 37.582 37.4141C35.4727 38.4336 32.7305 40.7891 31.9219 43.1094L32.4141 44.4805C33.4687 40.2969 38.6719 36.6055 45.0352 36.7109C51.3984 36.6055 56.6016 40.2969 57.6563 44.4805L58.1484 43.1094C57.3047 40.7891 54.5977 38.4336 52.4883 37.4141Z" fill="#4B8F07"/>
<path d="M46.7931 34.25L45.9845 33.3359L46.2657 33.4062C46.3009 33.4062 46.3009 33.4062 46.3361 33.4062C46.4064 33.4062 46.4767 33.3711 46.5118 33.3008C46.5822 33.2305 46.5822 33.125 46.5118 33.0547L46.09 32.3516C46.1251 32.3516 46.1603 32.3867 46.1954 32.3867C46.2306 32.3867 46.2657 32.3867 46.3009 32.3516C46.3712 32.3164 46.4064 32.2461 46.4064 32.1758L46.3361 30.5586C46.3361 30.4883 46.3009 30.418 46.2306 30.3828C46.1603 30.3477 46.09 30.3477 46.0196 30.3828L44.5782 31.1211C44.5079 31.1562 44.4728 31.2266 44.4728 31.2969C44.4728 31.3672 44.5079 31.4375 44.5782 31.4727L44.965 31.6836L43.8048 32.3164C43.7345 32.3516 43.6642 32.457 43.6993 32.5273C43.6993 32.6328 43.7696 32.7031 43.84 32.7031L44.5079 32.8789L43.2423 33.8984C43.172 33.9688 43.1368 34.0391 43.172 34.1445C43.2072 34.25 43.2775 34.2852 43.3829 34.3203L44.6837 34.4258V34.8828H45.4572V34.4961L46.6173 34.6016C46.6173 34.6016 46.6173 34.6016 46.6525 34.6016C46.7228 34.6016 46.8282 34.5664 46.8634 34.4609C46.8634 34.4258 46.8634 34.3203 46.7931 34.25ZM45.9845 30.8047L46.0548 32L45.6681 31.7891L45.3517 31.6133L44.9298 31.3672L45.9845 30.8047ZM44.1915 32.5273L45.2462 31.9648L45.4572 32.0703L46.0548 33.0195L45.5978 32.8789L44.8243 32.668L44.1915 32.5273ZM43.629 34.0391L44.8595 33.0547L45.3517 33.1953L46.3009 34.2852L43.629 34.0391Z" fill="#525252"/>
<path d="M67.6406 96.7229C67.6406 96.7229 66.6562 82.0627 66.5859 81.6408C65.6367 76.7893 64.8633 71.3752 66.0937 66.1018C65.2148 64.9416 59.5898 63.5002 59.0625 63.7112C58.3594 64.6955 58.1133 65.2229 57.1992 68.0705C55.5469 73.2385 49.8867 82.6604 45 82.8362C40.1133 82.6604 34.4531 73.2737 32.8008 68.0705C31.8867 65.258 31.6406 64.7307 30.9375 63.7112C30.4102 63.5002 24.7852 64.9416 23.9063 66.1018C25.1016 71.3752 24.3633 76.7893 23.4141 81.6408C23.3437 82.0627 22.3594 96.7229 22.3594 96.7229H67.6406Z" fill="#424242"/>
</g>
</g>
<defs>
<clipPath id="clip0_3458_3529">
<rect width="90" height="90" fill="white" transform="translate(0 0.5)"/>
</clipPath>
</defs>
</svg>
