<svg width="21" height="20" viewBox="0 0 21 20" fill="none" xmlns="http://www.w3.org/2000/svg">
<g clip-path="url(#clip0_1784_29293)">
<path d="M18.4993 8V3.33333C18.4993 2.97971 18.3589 2.64057 18.1088 2.39052C17.8588 2.14048 17.5196 2 17.166 2H2.49935C2.14573 2 1.80659 2.14048 1.55654 2.39052C1.30649 2.64057 1.16602 2.97971 1.16602 3.33333V16.6667C1.16602 17.0203 1.30649 17.3594 1.55654 17.6095C1.80659 17.8595 2.14573 18 2.49935 18H17.166C17.5196 18 17.8588 17.8595 18.1088 17.6095C18.3589 17.3594 18.4993 17.0203 18.4993 16.6667V12M19.7393 7.33333H13.166C12.4588 7.33333 11.7805 7.61428 11.2804 8.11438C10.7803 8.61448 10.4993 9.29276 10.4993 10C10.4993 10.7072 10.7803 11.3855 11.2804 11.8856C11.7805 12.3857 12.4588 12.6667 13.166 12.6667H19.7393C19.7641 12.6667 19.7878 12.6568 19.8053 12.6393C19.8228 12.6218 19.8327 12.5981 19.8327 12.5733V7.42667C19.8327 7.40191 19.8228 7.37817 19.8053 7.36067C19.7878 7.34317 19.7641 7.33333 19.7393 7.33333Z" stroke="white"/>
</g>
<defs>
<clipPath id="clip0_1784_29293">
<rect width="20" height="20" fill="white" transform="translate(0.5)"/>
</clipPath>
</defs>
</svg>
